<?xml version="1.0" encoding="iso-8859-1"?>
<!-- Generator: Adobe Illustrator 16.0.0, SVG Export Plug-In . SVG Version: 6.00 Build 0)  -->
<!DOCTYPE svg PUBLIC "-//W3C//DTD SVG 1.1//EN" "http://www.w3.org/Graphics/SVG/1.1/DTD/svg11.dtd">
<svg version="1.1" id="Capa_1" xmlns="http://www.w3.org/2000/svg" xmlns:xlink="http://www.w3.org/1999/xlink" x="0px" y="0px"
	 width="523.488px" height="523.488px" viewBox="0 0 523.488 523.488" style="enable-background:new 0 0 523.488 523.488;"
	 xml:space="preserve">
<g>
	<g>
		<path d="M182.821,495.337l1.358-0.898c162.467-65.58,224.308-215.377,152.761-280.957s-153.516,25.044-153.516,25.044h-0.593
			c0,0-40.832-45.059-89.993-48.587v-49.17c-0.01-46.273,42.037-83.93,94.066-83.93c49.955,0,87.612,36.079,87.612,83.93v11.695
			c0,7.927,6.416,14.344,14.344,14.344s14.344-6.417,14.344-14.344v-11.695c0-64.203-50.002-112.618-116.644-112.618
			c-67.501,0-122.419,50.519-122.419,112.618v52.24c-11.628,3.5-23.371,9.964-34.836,20.483
			C-42.242,279.071,20.363,429.757,182.821,495.337z M185.412,299.344c15.616,0,28.286,12.661,28.286,28.286
			c0,10.107-5.346,18.914-13.321,23.916l6.254,12.345l2.601,5.135l13.148,25.953l3.089,6.11h-37.705h-0.861H150.05l2.687-5.298
			l13.225-26.096l2.945-5.814l5.24-10.337c-10.012-4.351-17.021-14.306-17.021-25.924
			C157.126,312.005,169.787,299.344,185.412,299.344z"/>
		<path d="M522.605,98.178c3.175-18.857-2.276-35.688-15.348-47.392c-9.238-8.281-19.767-12.479-31.289-12.479
			c-15.567,0-29.099,7.765-38.355,15.042c-9.246-7.277-22.777-15.051-38.354-15.051c-10.021,0-19.354,3.184-27.731,9.524
			c-2.229,1.683-5.154,4.284-6.942,6.226c-11.609,12.546-15.788,29.653-11.753,48.3c6.216,28.678,30.896,55.683,65.121,72.503
			v121.052c0,7.918,6.416,14.344,14.344,14.344c4.437,0,8.348-2.056,10.978-5.221c1.091,0.268,2.199,0.439,3.366,0.439h38.25
			c7.928,0,14.344-6.426,14.344-14.344s-6.416-14.344-14.344-14.344h-38.25v-9.562h19.125c7.928,0,14.344-6.416,14.344-14.344
			c0-7.927-6.416-14.344-14.344-14.344h-19.125V179C487.387,161.854,517.192,130.327,522.605,98.178z M380.879,96.428
			c-1.415-6.531-1.74-15.797,4.781-22.835c0.794-0.86,2.229-2.132,3.175-2.85c3.376-2.553,6.685-3.739,10.433-3.739
			c11.131,0,22.606,10.337,25.867,13.502l1.425,1.416c1.645,1.645,5.077,5.087,11.063,5.087s9.429-3.443,11.083-5.106l1.405-1.396
			c3.252-3.165,14.746-13.502,25.867-13.502c4.36,0,8.214,1.635,12.145,5.154c5.642,5.049,7.727,12.202,6.196,21.267
			c-3.099,18.408-22.118,43.644-57.662,58.962C401.151,137.116,384.417,112.77,380.879,96.428z"/>
	</g>
</g>
<g>
</g>
<g>
</g>
<g>
</g>
<g>
</g>
<g>
</g>
<g>
</g>
<g>
</g>
<g>
</g>
<g>
</g>
<g>
</g>
<g>
</g>
<g>
</g>
<g>
</g>
<g>
</g>
<g>
</g>
</svg>
